# xmcd
#
# Track frame offsets:
#	150
#	13473
#	26253
#	39740
#	54298
#	67080
#	83100
#	96137
#	111398
#	126277
#	140121
#	158218
#
# Disc length: 2298 seconds
#
# Revision: 0
# Processed by: cddbd v1.5.2PL0 Copyright (c) Steve Scherf et al.
# Submitted via: dBpowerAMP V4.0
#
DISCID=a908f80c
DTITLE=John England and the Western Swingers - Swinging Broadway
DYEAR=2002
DGENRE=Country
TTITLE0=Little Liza Jane
TTITLE1=Kind Of Love I Can't Forget
TTITLE2=Your Turn To Cry
TTITLE3=Makes No Difference Now
TTITLE4=Stumbling
TTITLE5=Stardust
TTITLE6=Peach Pickin' Time In Georgia
TTITLE7=Deep Water
TTITLE8=Little Red Wagon
TTITLE9=Under The Double Eagle
TTITLE10=Rosetta
TTITLE11=Sweet Jenny Lee
EXTD=
EXTT0=
EXTT1=
EXTT2=
EXTT3=
EXTT4=
EXTT5=
EXTT6=
EXTT7=
EXTT8=
EXTT9=
EXTT10=
EXTT11=
PLAYORDER=
